<svg width="90" height="49" viewBox="0 0 90 49" fill="none" xmlns="http://www.w3.org/2000/svg">
<path d="M39.3229 46.6146L1.5625 8.85417C1.04167 8.33334 0.652779 7.77083 0.395834 7.16666C0.13889 6.5625 0.00694444 5.90972 0 5.20833C0 3.81944 0.479167 2.60416 1.4375 1.5625C2.39583 0.520829 3.65278 0 5.20833 0H84.375C85.9375 0 87.1979 0.520829 88.1562 1.5625C89.1146 2.60416 89.5903 3.81944 89.5833 5.20833C89.5833 5.55556 89.0625 6.77084 88.0208 8.85417L50.2604 46.6146C49.3924 47.4826 48.5243 48.0903 47.6562 48.4375C46.7882 48.7847 45.8333 48.9583 44.7917 48.9583C43.75 48.9583 42.7951 48.7847 41.9271 48.4375C41.059 48.0903 40.191 47.4826 39.3229 46.6146Z" fill="black"/>
</svg>
