<svg width="250" height="252" viewBox="0 0 250 252" fill="none" xmlns="http://www.w3.org/2000/svg">
<path d="M27.7778 224H47.5694L183.333 87.15L163.542 67.2L27.7778 204.05V224ZM0 252V192.5L183.333 8.05C186.111 5.48333 189.18 3.5 192.542 2.1C195.903 0.700001 199.43 0 203.125 0C206.819 0 210.407 0.700001 213.889 2.1C217.37 3.5 220.38 5.6 222.917 8.4L242.014 28C244.792 30.5667 246.819 33.6 248.097 37.1C249.375 40.6 250.009 44.1 250 47.6C250 51.3333 249.366 54.894 248.097 58.282C246.829 61.67 244.801 64.7593 242.014 67.55L59.0278 252H0ZM173.264 77.35L163.542 67.2L183.333 87.15L173.264 77.35Z" fill="black"/>
</svg>
