<svg width="209" height="209" viewBox="0 0 209 209" fill="none" xmlns="http://www.w3.org/2000/svg">
<path d="M40.1042 157.292C48.9583 150.521 58.8542 145.184 69.7917 141.281C80.7292 137.378 92.1875 135.424 104.167 135.417C116.146 135.41 127.604 137.365 138.542 141.281C149.479 145.198 159.375 150.535 168.229 157.292C174.306 150.174 179.038 142.101 182.427 133.073C185.816 124.045 187.507 114.41 187.5 104.167C187.5 81.0764 179.385 61.4132 163.156 45.1771C146.927 28.941 127.264 20.8264 104.167 20.8333C81.0694 20.8403 61.4063 28.9583 45.1771 45.1875C28.9479 61.4167 20.8333 81.0764 20.8333 104.167C20.8333 114.41 22.5278 124.045 25.9167 133.073C29.3056 142.101 34.0347 150.174 40.1042 157.292ZM104.167 114.583C93.9236 114.583 85.2847 111.069 78.25 104.042C71.2153 97.0139 67.7014 88.375 67.7083 78.125C67.7153 67.875 71.2326 59.2361 78.2604 52.2083C85.2882 45.1806 93.9236 41.6667 104.167 41.6667C114.41 41.6667 123.049 45.184 130.083 52.2187C137.118 59.2535 140.632 67.8889 140.625 78.125C140.618 88.3611 137.104 97 130.083 104.042C123.063 111.083 114.424 114.597 104.167 114.583ZM104.167 208.333C89.7569 208.333 76.2153 205.597 63.5417 200.125C50.8681 194.653 39.8438 187.233 30.4688 177.865C21.0938 168.497 13.6736 157.472 8.20835 144.792C2.74307 132.111 0.00695763 118.569 1.31856e-05 104.167C-0.00693126 89.7639 2.72918 76.2222 8.20835 63.5417C13.6875 50.8611 21.1077 39.8368 30.4688 30.4688C39.8299 21.1007 50.8542 13.6806 63.5417 8.20833C76.2292 2.73611 89.7708 0 104.167 0C118.563 0 132.104 2.73611 144.792 8.20833C157.479 13.6806 168.503 21.1007 177.865 30.4688C187.226 39.8368 194.649 50.8611 200.135 63.5417C205.622 76.2222 208.354 89.7639 208.333 104.167C208.313 118.569 205.576 132.111 200.125 144.792C194.674 157.472 187.253 168.497 177.865 177.865C168.476 187.233 157.451 194.656 144.792 200.135C132.132 205.615 118.59 208.347 104.167 208.333Z" fill="black"/>
</svg>
