<svg width="219" height="219" viewBox="0 0 219 219" fill="none" xmlns="http://www.w3.org/2000/svg">
<path d="M230.556 250L143.056 162.5C136.111 168.056 128.125 172.454 119.097 175.694C110.069 178.935 100.463 180.556 90.2778 180.556C65.0463 180.556 43.6945 171.815 26.2222 154.333C8.75001 136.852 0.00926661 115.5 7.34862e-06 90.2778C-0.00925191 65.0556 8.73149 43.7037 26.2222 26.2222C43.713 8.74074 65.0648 0 90.2778 0C115.491 0 136.847 8.74074 154.347 26.2222C171.847 43.7037 180.583 65.0556 180.556 90.2778C180.556 100.463 178.935 110.069 175.694 119.097C172.454 128.125 168.056 136.111 162.5 143.056L250 230.556L230.556 250ZM90.2778 152.778C107.639 152.778 122.398 146.704 134.556 134.556C146.713 122.407 152.787 107.648 152.778 90.2778C152.769 72.9074 146.694 58.1528 134.556 46.0139C122.417 33.875 107.657 27.7963 90.2778 27.7778C72.8982 27.7593 58.1435 33.838 46.0139 46.0139C33.8843 58.1898 27.8056 72.9444 27.7778 90.2778C27.75 107.611 33.8287 122.37 46.0139 134.556C58.1991 146.741 72.9537 152.815 90.2778 152.778Z" fill="black"/>
</svg>
